<svg width="1440" height="1440" viewBox="0 0 1440 1440" fill="none" xmlns="http://www.w3.org/2000/svg">
<g filter="url(#filter0_ddd_69_201)">
<rect width="1440" height="1440" fill="#645CFF"/>
<g filter="url(#filter1_d_69_201)">
<path d="M910.654 1008.48C944.15 1025.95 977.638 1047.1 1005.74 1076.35C1019.58 1091 1031.74 1107.27 1041.98 1124.83C1051.95 1142.1 1060.41 1160.26 1067.28 1179.1C1081.5 1218.68 1089.23 1259.64 1095.22 1299.76C1096.79 1309.72 1098.2 1319.67 1099.54 1329.59L1103.37 1359.29L1068.43 1363.81C1062.82 1317.09 1058.43 1269.09 1062.28 1220.39C1065.94 1171.91 1078.21 1122.51 1103.1 1079.23C1109.35 1068.35 1116.38 1057.98 1124.13 1048.2C1131.91 1038.24 1140.55 1029.05 1149.94 1020.73C1152.23 1018.54 1154.72 1016.64 1157.15 1014.66C1159.62 1012.74 1161.99 1010.64 1164.55 1008.86C1169.64 1005.27 1174.7 1001.57 1180.03 998.454C1190.5 991.987 1201.4 986.326 1212.67 981.518C1223.73 976.769 1235.03 972.66 1246.53 969.21C1257.92 965.908 1269.35 962.855 1280.76 960.465C1303.58 955.429 1326.27 952.034 1348.63 948.698L1350.84 992.717L1330.91 992.272C1309.25 991.85 1287.4 990.645 1265.38 988.797C1242.83 987.115 1220.45 983.678 1198.4 978.515C1175.16 973.123 1152.89 963.935 1132.42 951.294C1121.84 944.511 1112.06 936.47 1103.28 927.334C1094.54 918.148 1086.93 907.869 1080.62 896.733C1068.17 874.977 1060.54 852.214 1054.01 830.319C1047.42 808.288 1041.93 785.918 1037.56 763.298C1033.09 740.717 1029.89 717.882 1027.99 694.913C1027.07 683.432 1026.36 671.939 1026.02 660.434L1025.76 651.806C1025.7 648.932 1025.77 646.05 1025.53 643.18C1025.22 637.434 1025.15 631.678 1024.94 625.923L1062.52 627.77C1059.36 669.761 1055.98 712.469 1048.19 755.386C1047.13 760.741 1046.16 766.119 1045.01 771.461L1041.15 787.462L1036.75 803.399L1031.74 819.232C1024.65 840.498 1015.59 861.002 1004.7 880.459C983.631 917.238 954.738 948.523 920.233 971.916C906.892 981.231 892.298 988.444 876.923 993.319C871.309 994.989 865.575 996.192 859.777 996.915C857.193 997.208 854.758 997.398 852.472 997.486L850.783 997.537L849.417 997.36C848.457 997.223 847.532 997.092 846.641 996.966C835.585 995.289 829.447 993.291 837.965 984.595C839.197 983.388 840.5 982.262 841.866 981.223C842.58 980.646 843.59 979.993 844.234 979.447C844.832 978.927 845.457 978.384 846.109 977.818C848.714 975.576 851.861 973.383 855.334 970.789C858.779 968.132 862.783 965.607 866.988 962.485C869.122 961.007 871.351 959.462 873.676 957.851C875.957 956.173 878.344 954.47 880.837 952.741C893.741 943.551 906.051 933.493 917.689 922.632C929.575 911.716 940.633 899.864 950.765 887.182C964.574 869.692 976.182 850.446 985.307 829.909C994.531 808.935 1001.87 787.121 1007.23 764.745C1018.74 719.647 1023.94 672.211 1028.82 624.4C1029.23 620.439 1031.08 616.762 1033.99 614.171C1036.9 611.579 1040.66 610.243 1044.49 610.435C1048.32 610.626 1051.94 612.332 1054.6 615.203C1057.26 618.073 1058.76 621.891 1058.8 625.874C1058.87 633.631 1058.62 641.402 1059.14 649.152C1059.62 656.899 1060.18 664.636 1060.93 672.354C1062.38 687.795 1064.52 703.143 1066.97 718.411C1071.82 748.927 1078.92 779.011 1088.21 808.395C1094.16 828.489 1101.88 847.969 1111.28 866.586C1115.71 875 1120.92 882.939 1126.85 890.287C1132.63 897.191 1139.04 903.504 1145.98 909.14C1152.5 914.205 1159.42 918.686 1166.66 922.536C1174.24 926.411 1182.07 929.749 1190.08 932.526C1206.86 938.085 1224.09 942.003 1241.57 944.227C1277.36 949.064 1314.56 949.771 1351.97 951.205L1352.19 951.214C1356.88 951.393 1361.33 953.395 1364.66 956.823C1367.99 960.251 1369.96 964.855 1370.18 969.721C1370.4 974.586 1368.84 979.359 1365.83 983.091C1362.82 986.823 1358.56 989.243 1353.91 989.87C1325.5 993.699 1297.55 997.704 1270.69 1004.2C1243.94 1010.84 1218.04 1019.54 1195.16 1033.2C1185.41 1038.99 1176.19 1045.72 1167.65 1053.29C1159.15 1061.04 1151.37 1069.59 1144.4 1078.83C1130.49 1097.94 1119.55 1119.21 1111.99 1141.85C1104.25 1164.82 1099.26 1188.69 1097.12 1212.92C1094.9 1237.55 1094.41 1262.32 1095.65 1287.03C1096.64 1311.08 1099 1335.28 1101.73 1359.56L1101.75 1359.72C1102.24 1364.07 1101.04 1368.45 1098.43 1371.89C1095.81 1375.34 1091.99 1377.56 1087.8 1378.08C1083.61 1378.6 1079.39 1377.38 1076.06 1374.67C1072.74 1371.97 1070.59 1368 1070.08 1363.65C1065.49 1324.65 1060.64 1285.99 1051.96 1248.71C1047.88 1230.16 1042.67 1211.9 1036.36 1194.04C1030.06 1176.49 1022.18 1159.6 1012.83 1143.59C1010.37 1139.71 1008.09 1135.7 1005.51 1131.93L997.536 1120.8C991.925 1113.63 985.958 1106.78 979.659 1100.26C966.623 1087.29 952.337 1075.74 937.026 1065.8C929.316 1060.72 921.368 1055.93 913.25 1051.36C909.192 1049.07 905.094 1046.84 900.956 1044.66L894.725 1041.43L891.61 1039.84L888.651 1038.47C884.79 1036.54 880.554 1034.98 876.438 1033.29C872.156 1031.84 867.97 1030.19 863.575 1028.94C854.923 1026.15 845.988 1024.03 837.059 1022.02C819.741 1018.27 802.171 1015.92 784.504 1014.97C767.38 1014.1 750.483 1015.14 736.44 1020.19L732.404 1003.52L732.391 1002.42H732.505H732.638H732.902L733.431 1002.42C733.774 1002.43 734.126 1002.44 734.62 1002.41L737.353 1002.32L742.911 1002.08C746.639 1001.9 750.346 1001.73 754.031 1001.56C761.431 1001.26 768.741 1000.95 775.96 1000.66C790.422 1000.11 804.542 999.788 818.337 999.485C823.03 999.302 827.731 999.492 832.396 1000.05C834.206 1000.21 835.287 1000.77 836.956 1000.77C838.042 1000.73 839.112 1001.05 840.022 1001.67L842.761 998.346C842.374 999.861 841.838 1000.53 842.093 1000.66C842.268 1000.8 843.219 1000.37 844.088 998.923C844.193 998.749 844.26 998.553 844.283 998.348C844.307 998.144 844.286 997.937 844.224 997.742C844.161 997.547 844.058 997.369 843.922 997.22C843.785 997.072 843.618 996.956 843.434 996.882C843.249 996.808 843.051 996.777 842.854 996.792C842.656 996.807 842.464 996.867 842.292 996.968C842.119 997.068 841.97 997.208 841.856 997.375C841.741 997.543 841.664 997.734 841.629 997.937L840.776 1002.94C840.617 1003.87 839.413 1005.28 837.179 1006.85C835.628 1008.16 833.939 1009.29 832.144 1010.21C826.612 1013.02 820.778 1015.13 814.764 1016.51C801.736 1019.62 788.616 1022.37 775.3 1024.99C768.646 1026.29 761.946 1027.54 755.2 1028.75L744.99 1030.51L739.743 1031.34L737.011 1031.74C735.985 1031.88 734.451 1032.02 733.19 1032.14C728.673 1032.54 724.162 1031.29 720.439 1028.6C716.716 1025.92 714.015 1021.96 712.805 1017.43C711.595 1012.89 711.951 1008.05 713.812 1003.76C715.673 999.467 718.922 995.985 722.995 993.918L724.298 993.266C734.79 988.195 745.936 984.732 757.386 982.984C762.689 982.316 768.099 981.455 773.3 981.258C775.919 981.109 778.566 980.887 781.167 980.817L788.933 980.752C809.541 980.964 830.068 983.455 850.167 988.183C860.323 990.459 870.363 993.261 880.249 996.579L887.747 999.178L895.278 1002.15C897.77 1003.08 900.334 1004.33 902.866 1005.48L906.667 1007.23L910.053 1008.92C910.249 1008.77 910.432 1008.63 910.654 1008.48Z" fill="white"/>
</g>
<g filter="url(#filter2_d_69_201)">
<path d="M350.616 542.337L368.837 552.128L386.37 563.044L390.731 565.797L394.918 568.808L403.276 574.842C406.044 576.872 408.866 578.835 411.583 580.927L419.499 587.507C430.088 596.239 440.159 605.535 449.664 615.35L463.328 630.57C467.803 635.695 471.746 641.213 475.956 646.523C492.103 668.144 505.793 691.361 516.794 715.778C527.436 740.165 535.501 765.517 540.868 791.451C542.091 798.345 543.583 805.197 544.508 812.135L546.915 832.999L547.977 853.975C548.352 860.964 547.874 867.983 547.851 874.978C546.902 903.015 542.742 930.867 535.446 958.03L529.74 977.143C528.099 982.635 524.447 987.372 519.456 990.484C514.465 993.596 508.47 994.872 502.577 994.078C496.683 993.284 491.286 990.473 487.381 986.162C483.475 981.852 481.323 976.332 481.32 970.619L481.328 969.513C481.384 907.833 481.246 844.23 493.596 780.343C499.665 748.007 509.595 716.45 523.189 686.297C537.074 655.306 556.112 626.686 579.558 601.555C603.607 576.665 631.86 555.851 663.126 539.99C693.471 524.783 725.393 512.672 758.368 503.856C774.579 499.412 790.832 495.615 807.144 492.256C823.496 488.937 840.245 486.013 857.544 484.199C875.228 482.193 893.061 481.686 910.837 482.683C929.484 483.739 947.914 487.085 965.675 492.639C971.528 494.471 976.649 497.992 980.339 502.722C984.029 507.451 986.109 513.159 986.294 519.065C986.48 524.972 984.761 530.79 981.374 535.724C977.987 540.658 973.096 544.468 967.368 546.635L966.726 546.874C938.76 556.865 909.19 562.087 879.351 562.304C847.689 562.489 816.069 560.075 784.835 555.09C753.868 550.964 723.208 544.936 693.045 537.041C677.457 532.896 662.147 527.841 647.201 521.905C631.807 515.909 616.953 508.707 602.79 500.371C588.262 491.86 574.627 482.017 562.076 470.982C549.59 459.883 538.288 447.619 528.335 434.369C509.413 408.759 494.049 380.89 482.633 351.467C460.193 294.942 446.331 235.615 441.473 175.304C440.904 167.783 440.416 160.254 440.147 152.716C439.971 148.948 439.845 145.179 439.795 141.408C439.734 137.605 439.591 134.084 439.673 129.459C439.67 119.299 441.235 109.195 444.316 99.476C446.427 93.0532 449.581 86.9903 453.66 81.5107C458.532 75.0312 464.83 69.6608 472.108 65.781L472.417 65.6191C475.978 63.7549 479.887 62.5822 483.921 62.1682C487.954 61.7541 492.033 62.1066 495.924 63.2057C499.816 64.3048 503.444 66.1289 506.601 68.5739C509.758 71.0188 512.382 74.0368 514.324 77.4554C516.409 81.1596 517.664 85.2411 518.01 89.4382C527.121 209.6 494.811 329.303 426.058 430.099C410.05 453.518 391.075 474.94 369.569 493.872C358.556 503.427 346.759 512.114 334.291 519.848C321.772 527.621 308.527 534.261 294.728 539.682C272.844 548.6 249.144 552.66 225.397 551.557C210.173 551.017 195.308 546.969 182.056 539.756C167.801 531.043 170.625 525.026 183.04 522.223C189.352 520.474 198.172 519.391 209.25 517.361C222.638 514.965 235.85 511.736 248.801 507.695C268.682 501.244 287.478 492.047 304.596 480.393C322.407 468.149 338.677 453.962 353.08 438.117C373.873 414.95 391.724 389.493 406.256 362.282C421.317 334.962 433.551 306.291 442.782 276.68C461.376 217.447 468.031 155.354 462.391 93.7276L499.12 112.657L498.99 112.477L499.072 112.588C499.148 112.681 499.18 112.698 499.18 112.698V112.77C498.97 113.058 498.794 113.367 498.655 113.692C497.699 115.86 497.081 118.152 496.82 120.493C496.333 124.164 496.14 127.866 496.244 131.565L496.786 145.58C497.797 164.636 499.9 183.616 502.776 202.463C508.687 240.1 518.573 277.061 532.281 312.776C541.746 338.142 554.096 362.429 569.107 385.197C576.274 395.9 584.308 406.045 593.136 415.536C597.384 420.105 601.869 424.466 606.574 428.602C608.949 430.621 611.163 432.786 613.599 434.729L620.907 440.54C642.806 456.649 667.349 469.143 693.527 477.508C721.22 486.495 749.648 493.238 778.515 497.665C807.44 502.826 836.705 506.049 866.097 507.31C893.396 508.578 920.694 504.778 946.493 496.118L947.423 544.085C921.88 535.747 893.031 534.382 863.4 537.246C848.58 538.591 833.532 540.945 818.329 543.754C803.106 546.608 787.981 549.818 773.116 553.512C741.268 561.043 710.54 572.408 681.66 587.335C653.591 601.792 628.692 621.312 608.328 644.825C588.149 668.968 572.208 696.11 561.133 725.181C549.717 754.947 541.745 785.827 537.361 817.266C529.997 866.782 529.212 917.931 528.53 969.765L484.932 962.894C513.973 880.72 503.843 786.003 460.381 708.965C457.539 704.221 455.018 699.275 451.926 694.676L442.63 680.882C439.471 676.325 435.85 672.095 432.488 667.672C430.748 665.509 429.139 663.233 427.291 661.156L421.681 654.976C414.238 646.69 406.366 638.769 398.093 631.244C389.413 624.132 381.001 616.681 371.597 610.381C367.089 606.989 362.403 603.819 357.559 600.883C352.71 597.95 347.978 594.828 343.04 592.027L327.96 584.025C322.97 581.283 317.605 579.236 312.45 576.795C291.54 567.458 269.676 560.232 247.21 555.234C193.678 543.169 138.089 542.132 84.1083 552.191L83.5439 531.626C115.869 541.062 149.799 544.365 183.439 541.353C202.534 539.628 212.227 539.134 212.147 543.078C212.019 544.819 209.496 547.837 204.059 551.275C200.761 553.36 197.309 555.211 193.73 556.813C191.64 557.791 189.36 558.781 186.868 559.7C185.624 560.159 184.343 560.689 182.993 561.105C181.631 561.485 180.224 561.86 178.771 562.228C145.032 570.736 109.785 572.2 75.4071 566.521C69.7171 565.564 64.5247 562.806 60.6568 558.687C56.7889 554.568 54.4679 549.325 54.0635 543.794C53.6591 538.262 55.1945 532.76 58.4253 528.163C61.656 523.566 66.3963 520.138 71.891 518.427L74.071 517.757C108.224 507.304 143.86 502.003 179.707 502.041C209.142 501.958 238.464 505.558 266.931 512.747C295.595 519.868 323.364 529.965 349.749 542.86C350.028 542.674 350.293 542.507 350.616 542.337Z" fill="white"/>
</g>
<g filter="url(#filter3_d_69_201)">
<path d="M1129.18 458.67C1146.97 474.97 1162.03 493.9 1173.8 514.774C1175.25 517.391 1176.78 519.958 1178.14 522.615L1181.91 530.761C1183.13 533.493 1184.49 536.155 1185.57 538.942L1188.63 547.376C1189.6 550.206 1190.77 552.956 1191.55 555.848L1193.86 564.518L1195.01 568.851C1195.39 570.28 1195.78 571.725 1196.08 573.33C1196.71 576.47 1197.23 579.732 1197.57 583.152C1198.23 589.292 1197.95 595.501 1196.74 601.572C1195.96 605.118 1194.75 608.565 1193.15 611.843C1191.35 615.349 1189.04 618.587 1186.3 621.457L1186.1 621.661C1183.83 624.034 1180.88 625.686 1177.64 626.399C1174.4 627.113 1171.02 626.856 1167.95 625.66C1164.87 624.465 1162.24 622.388 1160.41 619.702C1158.58 617.016 1157.62 613.847 1157.67 610.61C1157.91 595.614 1159.02 580.637 1161.01 565.754C1164.15 540.89 1170.76 516.541 1180.64 493.381C1190.77 469.698 1205.13 447.94 1223.05 429.125C1241.45 410.202 1263.5 395.031 1287.93 384.503C1313.04 373.778 1340.4 369.156 1367.67 371.034C1371.68 371.343 1375.48 372.86 1378.55 375.376C1381.63 377.892 1383.82 381.282 1384.82 385.077C1385.82 388.872 1385.59 392.886 1384.16 396.562C1382.73 400.239 1380.16 403.397 1376.82 405.601L1376.49 405.816C1368.33 411.052 1359.38 415.007 1349.98 417.536C1341.33 419.813 1332.47 421.246 1323.54 421.812C1314.99 422.44 1306.77 422.447 1298.86 422.309C1290.96 422.145 1283.42 421.967 1275.2 421.517C1263.41 421.033 1251.71 419.294 1240.32 416.332C1234.07 414.623 1228.01 412.318 1222.24 409.449C1216.33 406.483 1210.78 402.9 1205.68 398.763C1196.17 390.802 1188.04 381.391 1181.61 370.891C1175.66 361.193 1170.67 350.96 1166.7 340.329C1150.91 299.188 1146.38 254.682 1153.56 211.181L1153.57 211.118C1154.2 207.326 1155.96 203.79 1158.61 200.945C1161.27 198.1 1164.72 196.072 1168.53 195.108C1172.35 194.145 1176.36 194.289 1180.08 195.523C1183.79 196.757 1187.05 199.027 1189.45 202.053C1197.02 211.911 1201.88 223.501 1203.58 235.733C1205.09 246.452 1205.04 257.337 1203.41 268.059C1202.75 273.219 1201.66 278.047 1200.65 282.916C1199.45 287.743 1198.3 292.588 1196.75 297.316C1193.86 306.818 1190.24 316.099 1185.93 325.08C1168.84 361.31 1141.42 392.009 1106.95 413.478C1085 426.943 1060.47 435.864 1034.89 439.684C1024.86 441.255 1014.64 441.136 1004.67 439.335C1002.65 438.936 1000.75 438.503 998.963 438.019C997.177 437.467 995.509 436.884 993.961 436.27C991.134 435.209 988.454 433.811 985.982 432.109C979.483 427.67 980.091 423.383 985.589 419.957C991.117 416.587 1001.52 413.893 1015.71 410.732L1022.51 409.167L1029.36 407.409C1033.94 406.146 1038.59 404.993 1043.19 403.558C1052.38 400.793 1061.39 397.496 1070.19 393.685C1087.14 386.194 1102.67 375.913 1116.07 363.292C1143.16 337.848 1161.03 304.496 1166.93 268.335C1168.38 260.083 1168.61 251.675 1167.59 243.375C1166.86 236.511 1164.15 230.002 1159.78 224.602L1190.59 216.765C1188.91 229.508 1188.46 242.37 1189.24 255.181C1190.62 278.842 1196.85 302.584 1203.71 324.261C1208.51 339.72 1215.37 354.071 1224.95 364.578C1229.48 369.64 1234.94 373.824 1241.06 376.915C1247.69 379.985 1254.76 382.068 1262.04 383.097C1270.34 384.281 1278.71 384.975 1287.1 385.177C1296.06 385.488 1304.97 385.81 1313.3 385.623C1330.06 385.339 1345.23 382.818 1356.21 375.825L1364.09 406.922L1358.18 406.558L1355.23 406.355L1352.26 406.377L1346.31 406.4L1340.35 406.833C1326.83 407.979 1313.56 411.16 1301.01 416.265C1288.24 421.494 1276.22 428.334 1265.25 436.609C1254.21 444.905 1244.26 454.495 1235.62 465.16C1226.9 475.981 1219.42 487.69 1213.29 500.081C1196.44 533.726 1188.75 572.068 1188.29 610.35L1163.97 601.134C1165.2 599.848 1166.05 598.267 1166.44 596.555C1167.08 593.886 1167.3 591.139 1167.08 588.411C1166.85 585.017 1166.34 581.647 1165.57 578.333L1162.55 567.298C1161.53 563.615 1160.3 559.991 1158.86 556.444L1156.87 551.05C1156.25 549.235 1155.29 547.555 1154.51 545.797C1152.83 542.339 1151.33 538.791 1149.52 535.386L1143.74 525.338C1135.53 512.132 1125.82 499.871 1114.81 488.782C1103.58 477.802 1091.19 468.011 1077.84 459.57C1061.03 449.228 1043.08 440.764 1024.31 434.335C1023.18 433.922 1022.06 433.463 1020.93 433.079L1017.49 432.077L1010.64 430.004C1006.12 428.413 1001.51 427.555 996.948 426.379L990.114 424.636C987.887 424.148 985.688 423.732 983.495 423.466C979.133 422.704 974.629 423.235 970.563 424.991C969.578 425.502 968.698 426.089 967.997 426.507L967.938 426.585L967.881 426.828C967.705 427.709 967.877 428.619 968.362 429.378C968.802 430.074 969.383 430.674 970.07 431.142C971.311 431.982 972.79 432.427 974.306 432.416C975.023 432.422 975.735 432.28 976.395 432C976.992 431.81 977.574 431.578 978.137 431.306C979.082 430.82 979.776 430.502 980.217 430.709C980.643 430.901 980.854 431.646 980.427 433.012C980.096 433.856 979.614 434.636 979.003 435.316C978.298 436.374 977.317 437.231 976.162 437.797C973.409 439.291 970.207 439.786 967.129 439.191C964.851 438.751 962.733 437.743 960.98 436.265C959.72 435.191 958.672 433.902 957.886 432.46C956.978 430.747 956.432 428.871 956.281 426.945C956.16 425.483 956.474 424.016 957.184 422.719L958.965 419.457C959.897 417.742 961.04 416.143 962.369 414.696C963.11 413.89 963.91 413.137 964.762 412.443C965.68 411.784 966.643 411.187 967.644 410.656C972.383 408.211 977.554 406.675 982.876 406.132C987.026 405.643 991.209 405.492 995.381 405.68L1006.83 406.052L1009.72 406.18L1012.57 406.524L1018.3 407.242C1033.76 409.211 1048.91 412.959 1063.44 418.408C1087.51 427.969 1109.59 441.702 1128.61 458.946C1128.8 458.855 1128.96 458.773 1129.18 458.67Z" fill="white"/>
</g>
</g>
<defs>
<filter id="filter0_ddd_69_201" x="-8" y="-5" width="1456" height="1456" filterUnits="userSpaceOnUse" color-interpolation-filters="sRGB">
<feFlood flood-opacity="0" result="BackgroundImageFix"/>
<feColorMatrix in="SourceAlpha" type="matrix" values="0 0 0 0 0 0 0 0 0 0 0 0 0 0 0 0 0 0 127 0" result="hardAlpha"/>
<feOffset/>
<feGaussianBlur stdDeviation="0.25"/>
<feColorMatrix type="matrix" values="0 0 0 0 0 0 0 0 0 0 0 0 0 0 0 0 0 0 0.18 0"/>
<feBlend mode="normal" in2="BackgroundImageFix" result="effect1_dropShadow_69_201"/>
<feColorMatrix in="SourceAlpha" type="matrix" values="0 0 0 0 0 0 0 0 0 0 0 0 0 0 0 0 0 0 127 0" result="hardAlpha"/>
<feOffset dy="3"/>
<feGaussianBlur stdDeviation="4"/>
<feColorMatrix type="matrix" values="0 0 0 0 0 0 0 0 0 0 0 0 0 0 0 0 0 0 0.1 0"/>
<feBlend mode="normal" in2="effect1_dropShadow_69_201" result="effect2_dropShadow_69_201"/>
<feColorMatrix in="SourceAlpha" type="matrix" values="0 0 0 0 0 0 0 0 0 0 0 0 0 0 0 0 0 0 127 0" result="hardAlpha"/>
<feOffset dx="1" dy="3"/>
<feGaussianBlur stdDeviation="1.5"/>
<feColorMatrix type="matrix" values="0 0 0 0 0 0 0 0 0 0 0 0 0 0 0 0 0 0 0.1 0"/>
<feBlend mode="normal" in2="effect2_dropShadow_69_201" result="effect3_dropShadow_69_201"/>
<feBlend mode="normal" in="SourceGraphic" in2="effect3_dropShadow_69_201" result="shape"/>
</filter>
<filter id="filter1_d_69_201" x="640.806" y="553.381" width="767.783" height="877.466" filterUnits="userSpaceOnUse" color-interpolation-filters="sRGB">
<feFlood flood-opacity="0" result="BackgroundImageFix"/>
<feColorMatrix in="SourceAlpha" type="matrix" values="0 0 0 0 0 0 0 0 0 0 0 0 0 0 0 0 0 0 127 0" result="hardAlpha"/>
<feOffset dx="-16.4525" dy="-2.19367"/>
<feGaussianBlur stdDeviation="27.4208"/>
<feComposite in2="hardAlpha" operator="out"/>
<feColorMatrix type="matrix" values="0 0 0 0 0 0 0 0 0 0 0 0 0 0 0 0 0 0 1 0"/>
<feBlend mode="normal" in2="BackgroundImageFix" result="effect1_dropShadow_69_201"/>
<feBlend mode="normal" in="SourceGraphic" in2="effect1_dropShadow_69_201" result="shape"/>
</filter>
<filter id="filter2_d_69_201" x="-17.2941" y="4.96469" width="1041.99" height="1041.99" filterUnits="userSpaceOnUse" color-interpolation-filters="sRGB">
<feFlood flood-opacity="0" result="BackgroundImageFix"/>
<feColorMatrix in="SourceAlpha" type="matrix" values="0 0 0 0 0 0 0 0 0 0 0 0 0 0 0 0 0 0 127 0" result="hardAlpha"/>
<feOffset dx="-16.4525" dy="-2.19367"/>
<feGaussianBlur stdDeviation="27.4208"/>
<feComposite in2="hardAlpha" operator="out"/>
<feColorMatrix type="matrix" values="0 0 0 0 0 0 0 0 0 0 0 0 0 0 0 0 0 0 1 0"/>
<feBlend mode="normal" in2="BackgroundImageFix" result="effect1_dropShadow_69_201"/>
<feBlend mode="normal" in="SourceGraphic" in2="effect1_dropShadow_69_201" result="shape"/>
</filter>
<filter id="filter3_d_69_201" x="884.962" y="137.443" width="538.862" height="542" filterUnits="userSpaceOnUse" color-interpolation-filters="sRGB">
<feFlood flood-opacity="0" result="BackgroundImageFix"/>
<feColorMatrix in="SourceAlpha" type="matrix" values="0 0 0 0 0 0 0 0 0 0 0 0 0 0 0 0 0 0 127 0" result="hardAlpha"/>
<feOffset dx="-16.4525" dy="-2.19367"/>
<feGaussianBlur stdDeviation="27.4208"/>
<feComposite in2="hardAlpha" operator="out"/>
<feColorMatrix type="matrix" values="0 0 0 0 0 0 0 0 0 0 0 0 0 0 0 0 0 0 1 0"/>
<feBlend mode="normal" in2="BackgroundImageFix" result="effect1_dropShadow_69_201"/>
<feBlend mode="normal" in="SourceGraphic" in2="effect1_dropShadow_69_201" result="shape"/>
</filter>
</defs>
</svg>
